<?xml version="1.0" encoding="UTF-8"?>
<svg id="Laag_1" xmlns="http://www.w3.org/2000/svg" version="1.1" viewBox="0 0 735.36 124.28">
  <!-- Generator: Adobe Illustrator 30.6.0, SVG Export Plug-In . SVG Version: 2.1.4 Build 109)  -->
  <defs>
    <style>
      .st0 {
        fill: #030303;
      }

      .st1 {
        fill: #020202;
      }

      .st2 {
        fill: #222322;
      }
    </style>
  </defs>
  <path class="st1" d="M363.14,105.19c-5.31-6.12-8.75-12.89-9.91-20.97-3.01-21.07-3.66-42.18-1.2-63.3.81-7.02,2.74-13.25,7.27-18.94l-44.62.03c14.08,14.61,26.3,29.9,27.93,49.97l.83,27.83c-6.36-8.87-12.98-15.76-19.16-23.71l-13.78-17.72c-6.8-8.74-10.55-26.94-2.31-36.49h-73.57c11.31,12.06,12.61,29.14,2.74,41.66-6.09,4.74-13.94,2.89-18.44-3.54-7.04-12.25-4.79-27.73,6.09-38.09l-162.54.02c10.22,11.42,16.82,25.09,20.4,40.21l-60.7.05c3.76-14.77,9.55-28.25,18.2-40.22L.15,2c3.91,4.61,5.93,9.19,7.86,14.62,6.4,22.1,7.21,45.24,2.11,67.72-1.79,7.89-4.99,14.44-10.11,20.82l40.71.13c-1.02-3.14-3.56-4.36-5.09-6.76-6.55-10.26-10.74-21.39-13.44-33.22l61.02-.03c-3.54,14.95-9.83,28.44-20.23,39.9l121.48.02-.03-33.91c-10.42,5.39-21.15,6.94-32.62,7.76l-39.51.42-.03-16.38,31.75.55c8.11.14,15.55,1.77,23.63,4.91l-.07-34.21c-16.92,8.11-37.17,7.99-55.3,7.68v-14.87s41.65.05,41.65.05c10.73.68,20.79,2.64,30.48,7.57l.16-27.88c7.13,7.72,13.07,15.5,18.72,24.21l20.37,31.43c-1.98,15.47-8.13,31.47-19.37,42.62l48.48.03c-6.63-7.15-11.72-14.23-14.27-23.55-6.26-22.83-5.03-16.23,5.96-34.8,8.29-14,16.68-27.31,26.37-40.29,3.71,7.1,4.78,13.89,5.5,21.81,1.66,18.44,1.5,36.16.02,54.01-.72,8.74-3.53,15.99-9.3,22.85l49.51-.02c-13.18-11.67-30.13-31.34-30.72-47.68l-1.18-32.74,17.72,17.92c15.35,15.52,34.34,44.25,19.07,62.69l41.69-.17ZM98.02,99.76c-3.39-6.72-4.19-13.45-4.7-20.62-1.3-18.04-1.27-35.89-.23-54,.4-6.92,1.43-13.39,4.36-19.65,3.77,7.33,4.63,14.82,4.64,22.59l.09,51.29c.01,7.05-1.1,13.66-4.15,20.4Z"/>
  <path class="st1" d="M554.65,30.87c-10.61-26.93-36.1-35.38-63.52-28.5-8,2.3-14.62,6.35-20.16,12.49-6.51,7.49-9.62,16.43-12.07,26.94-4.34-17.98-14.65-34.25-33.24-39.35-11.97-3.28-24.46-3.35-36.4.32-30.92,9.52-41.68,52.7-23.97,81.76,9.52,15.63,25.63,22.8,43.4,22.7,27.15-.16,44.85-14.52,49.79-41.21.1-.54.59-.49.84-.25,1.16.68,1.18,2.03.88,3.2,4.77,23.3,25.29,39.48,49.68,38.07,20.6.64,38.57-11.52,45.2-31.09,4.96-14.67,5.26-30.65-.42-45.07ZM450.13,61.85c-7.92,22.66-43.41,22.92-64.77,17.27-9.15-2.42-16.31-9.01-18.89-16.49-3.31-9.62-1.48-19.79,5.29-26.76,3.84-3.95,8.95-6.31,14.18-7.9,15.23-4.62,31.14-4.47,46.26.2,14.49,4.48,23.02,19.13,17.94,33.67ZM533.44,77.89c-16.01,5.79-34.14,5.57-49.71.31-11.59-3.91-18.09-13.83-18.23-24.97-.35-28.11,41.03-33.69,67.14-24.39,10.87,3.87,17.62,12.69,18.11,23.57.48,10.77-5.75,21.31-17.3,25.49Z"/>
  <g>
    <rect class="st2" x="148.25" y="119.51" width="414.09" height="4.77"/>
    <rect class="st0" x="149.2" y="120.47" width="412.18" height="2.86"/>
  </g>
  <path class="st1" d="M735.36,105.19c-5.89-6.72-9.86-13.76-12.69-22l-10.59-30.84c-4.78-13.91-10.85-37.45-8.25-50.47l-45.67.09c7.32,13.6.53,37.53-3.91,53.98-3.86,14.31-8.02,28.12-15.3,41.35-3.59-15.39-4.56-29.68-4.19-44.58l.9-36.21c.14-5.49,2.29-10.15,6.13-14.52l-42.69.08c7.85,7.8,14.24,15.55,19.64,24.73,4.26,7.06,6.57,14.77,7.7,23.05l1.32,29.91-17.75-22.28c-11.1-13.94-23.56-25.89-22-45.77.3-3.8,1.94-6.46,4.27-9.73l-38.22-.02c3.97,5.51,5.34,11.16,6.26,17.52,2.21,15.21,1.99,30.17,2.06,45.62.06,14.16-.02,30.8-9.81,40.08l47.56-.04c-16.14-14.86-30.3-33.28-29.84-55.26l-.43-25.21c11.7,11.18,21.9,22.45,31,35.23,9.56,14.33,16.64,32.68,4.11,45.29h71.2c-6.56-6.29-10.75-13.19-11.21-21.86-.62-11.68,7.64-21.12,19.51-20.51,8.43-.66,15.85,4.33,18.37,12.54,3.34,10.88-.96,21.6-9.2,29.81h41.7ZM683.98,44.32c-10.15.14-17.79,5.88-22.21,16.43.87-13.24,6.39-32.9,19.41-34.09,15.72-1.44,23.14,18.27,24.86,34.15-4.76-10.28-11.98-16.62-22.05-16.48Z"/>
</svg>